TITLE ""
FILE "TOEIC LR Kinnojyukugo_01.mp3" MP3
  TRACK 01 AUDIO
    TITLE "TOEIC LR Kinnojyukugo_01_001"
    INDEX 01 00:00:00
  TRACK 02 AUDIO
    TITLE "TOEIC LR Kinnojyukugo_01_002"
    INDEX 01 00:00:12
  TRACK 03 AUDIO
    TITLE "TOEIC LR Kinnojyukugo_01_003"
    INDEX 01 00:01:25
  TRACK 04 AUDIO
    TITLE "TOEIC LR Kinnojyukugo_01_004"
    INDEX 01 00:01:65
  TRACK 05 AUDIO
    TITLE "TOEIC LR Kinnojyukugo_01_005"
    INDEX 01 00:03:52
  TRACK 06 AUDIO
    TITLE "TOEIC LR Kinnojyukugo_01_006"
    INDEX 01 00:04:53
  TRACK 07 AUDIO
    TITLE "TOEIC LR Kinnojyukugo_01_007"
    INDEX 01 00:06:01
  TRACK 08 AUDIO
    TITLE "TOEIC LR Kinnojyukugo_01_008"
    INDEX 01 00:06:38
  TRACK 09 AUDIO
    TITLE "TOEIC LR Kinnojyukugo_01_009"
    INDEX 01 00:08:20
  TRACK 10 AUDIO
    TITLE "TOEIC LR Kinnojyukugo_01_010"
    INDEX 01 00:09:25
  TRACK 11 AUDIO
    TITLE "TOEIC LR Kinnojyukugo_01_011"
    INDEX 01 00:10:54
  TRACK 12 AUDIO
    TITLE "TOEIC LR Kinnojyukugo_01_012"
    INDEX 01 00:11:20
  TRACK 13 AUDIO
    TITLE "TOEIC LR Kinnojyukugo_01_013"
    INDEX 01 00:14:36
  TRACK 14 AUDIO
    TITLE "TOEIC LR Kinnojyukugo_01_014"
    INDEX 01 00:15:35
  TRACK 15 AUDIO
    TITLE "TOEIC LR Kinnojyukugo_01_015"
    INDEX 01 00:16:60
  TRACK 16 AUDIO
    TITLE "TOEIC LR Kinnojyukugo_01_016"
    INDEX 01 00:17:24
  TRACK 17 AUDIO
    TITLE "TOEIC LR Kinnojyukugo_01_017"
    INDEX 01 00:21:01
  TRACK 18 AUDIO
    TITLE "TOEIC LR Kinnojyukugo_01_018"
    INDEX 01 00:22:02
  TRACK 19 AUDIO
    TITLE "TOEIC LR Kinnojyukugo_01_019"
    INDEX 01 00:23:43
  TRACK 20 AUDIO
    TITLE "TOEIC LR Kinnojyukugo_01_020"
    INDEX 01 00:24:05
  TRACK 21 AUDIO
    TITLE "TOEIC LR Kinnojyukugo_01_021"
    INDEX 01 00:26:37
  TRACK 22 AUDIO
    TITLE "TOEIC LR Kinnojyukugo_01_022"
    INDEX 01 00:27:37
  TRACK 23 AUDIO
    TITLE "TOEIC LR Kinnojyukugo_01_023"
    INDEX 01 00:28:50
  TRACK 24 AUDIO
    TITLE "TOEIC LR Kinnojyukugo_01_024"
    INDEX 01 00:29:14
  TRACK 25 AUDIO
    TITLE "TOEIC LR Kinnojyukugo_01_025"
    INDEX 01 00:31:17
  TRACK 26 AUDIO
    TITLE "TOEIC LR Kinnojyukugo_01_026"
    INDEX 01 00:32:18
  TRACK 27 AUDIO
    TITLE "TOEIC LR Kinnojyukugo_01_027"
    INDEX 01 00:33:57
  TRACK 28 AUDIO
    TITLE "TOEIC LR Kinnojyukugo_01_028"
    INDEX 01 00:34:21
  TRACK 29 AUDIO
    TITLE "TOEIC LR Kinnojyukugo_01_029"
    INDEX 01 00:36:39
  TRACK 30 AUDIO
    TITLE "TOEIC LR Kinnojyukugo_01_030"
    INDEX 01 00:37:41
  TRACK 31 AUDIO
    TITLE "TOEIC LR Kinnojyukugo_01_031"
    INDEX 01 00:38:56
  TRACK 32 AUDIO
    TITLE "TOEIC LR Kinnojyukugo_01_032"
    INDEX 01 00:39:18
  TRACK 33 AUDIO
    TITLE "TOEIC LR Kinnojyukugo_01_033"
    INDEX 01 00:41:35
  TRACK 34 AUDIO
    TITLE "TOEIC LR Kinnojyukugo_01_034"
    INDEX 01 00:42:36
  TRACK 35 AUDIO
    TITLE "TOEIC LR Kinnojyukugo_01_035"
    INDEX 01 00:43:34
  TRACK 36 AUDIO
    TITLE "TOEIC LR Kinnojyukugo_01_036"
    INDEX 01 00:44:02
  TRACK 37 AUDIO
    TITLE "TOEIC LR Kinnojyukugo_01_037"
    INDEX 01 00:46:03
  TRACK 38 AUDIO
    TITLE "TOEIC LR Kinnojyukugo_01_038"
    INDEX 01 00:47:02
  TRACK 39 AUDIO
    TITLE "TOEIC LR Kinnojyukugo_01_039"
    INDEX 01 00:48:19
  TRACK 40 AUDIO
    TITLE "TOEIC LR Kinnojyukugo_01_040"
    INDEX 01 00:48:58
  TRACK 41 AUDIO
    TITLE "TOEIC LR Kinnojyukugo_01_041"
    INDEX 01 00:51:12
  TRACK 42 AUDIO
    TITLE "TOEIC LR Kinnojyukugo_01_042"
    INDEX 01 00:52:13
  TRACK 43 AUDIO
    TITLE "TOEIC LR Kinnojyukugo_01_043"
    INDEX 01 00:53:16
  TRACK 44 AUDIO
    TITLE "TOEIC LR Kinnojyukugo_01_044"
    INDEX 01 00:53:71
  TRACK 45 AUDIO
    TITLE "TOEIC LR Kinnojyukugo_01_045"
    INDEX 01 00:55:41
  TRACK 46 AUDIO
    TITLE "TOEIC LR Kinnojyukugo_01_046"
    INDEX 01 00:56:40
  TRACK 47 AUDIO
    TITLE "TOEIC LR Kinnojyukugo_01_047"
    INDEX 01 00:57:59
  TRACK 48 AUDIO
    TITLE "TOEIC LR Kinnojyukugo_01_048"
    INDEX 01 00:58:21
  TRACK 49 AUDIO
    TITLE "TOEIC LR Kinnojyukugo_01_049"
    INDEX 01 01:01:28
  TRACK 50 AUDIO
    TITLE "TOEIC LR Kinnojyukugo_01_050"
    INDEX 01 01:02:27
  TRACK 51 AUDIO
    TITLE "TOEIC LR Kinnojyukugo_01_051"
    INDEX 01 01:03:48
  TRACK 52 AUDIO
    TITLE "TOEIC LR Kinnojyukugo_01_052"
    INDEX 01 01:04:12
  TRACK 53 AUDIO
    TITLE "TOEIC LR Kinnojyukugo_01_053"
    INDEX 01 01:06:41
  TRACK 54 AUDIO
    TITLE "TOEIC LR Kinnojyukugo_01_054"
    INDEX 01 01:07:44
  TRACK 55 AUDIO
    TITLE "TOEIC LR Kinnojyukugo_01_055"
    INDEX 01 01:08:63
  TRACK 56 AUDIO
    TITLE "TOEIC LR Kinnojyukugo_01_056"
    INDEX 01 01:09:25
  TRACK 57 AUDIO
    TITLE "TOEIC LR Kinnojyukugo_01_057"
    INDEX 01 01:10:66
  TRACK 58 AUDIO
    TITLE "TOEIC LR Kinnojyukugo_01_058"
    INDEX 01 01:11:73
  TRACK 59 AUDIO
    TITLE "TOEIC LR Kinnojyukugo_01_059"
    INDEX 01 01:13:11
  TRACK 60 AUDIO
    TITLE "TOEIC LR Kinnojyukugo_01_060"
    INDEX 01 01:13:50
  TRACK 61 AUDIO
    TITLE "TOEIC LR Kinnojyukugo_01_061"
    INDEX 01 01:15:73
  TRACK 62 AUDIO
    TITLE "TOEIC LR Kinnojyukugo_01_062"
    INDEX 01 01:16:72
  TRACK 63 AUDIO
    TITLE "TOEIC LR Kinnojyukugo_01_063"
    INDEX 01 01:18:34
  TRACK 64 AUDIO
    TITLE "TOEIC LR Kinnojyukugo_01_064"
    INDEX 01 01:18:75
  TRACK 65 AUDIO
    TITLE "TOEIC LR Kinnojyukugo_01_065"
    INDEX 01 01:21:22
  TRACK 66 AUDIO
    TITLE "TOEIC LR Kinnojyukugo_01_066"
    INDEX 01 01:22:26
  TRACK 67 AUDIO
    TITLE "TOEIC LR Kinnojyukugo_01_067"
    INDEX 01 01:23:25
  TRACK 68 AUDIO
    TITLE "TOEIC LR Kinnojyukugo_01_068"
    INDEX 01 01:23:63
  TRACK 69 AUDIO
    TITLE "TOEIC LR Kinnojyukugo_01_069"
    INDEX 01 01:25:67
  TRACK 70 AUDIO
    TITLE "TOEIC LR Kinnojyukugo_01_070"
    INDEX 01 01:26:65
  TRACK 71 AUDIO
    TITLE "TOEIC LR Kinnojyukugo_01_071"
    INDEX 01 01:28:09
  TRACK 72 AUDIO
    TITLE "TOEIC LR Kinnojyukugo_01_072"
    INDEX 01 01:28:44
  TRACK 73 AUDIO
    TITLE "TOEIC LR Kinnojyukugo_01_073"
    INDEX 01 01:31:46
  TRACK 74 AUDIO
    TITLE "TOEIC LR Kinnojyukugo_01_074"
    INDEX 01 01:32:44
  TRACK 75 AUDIO
    TITLE "TOEIC LR Kinnojyukugo_01_075"
    INDEX 01 01:33:75
  TRACK 76 AUDIO
    TITLE "TOEIC LR Kinnojyukugo_01_076"
    INDEX 01 01:34:37
  TRACK 77 AUDIO
    TITLE "TOEIC LR Kinnojyukugo_01_077"
    INDEX 01 01:37:61
  TRACK 78 AUDIO
    TITLE "TOEIC LR Kinnojyukugo_01_078"
    INDEX 01 01:38:60
  TRACK 79 AUDIO
    TITLE "TOEIC LR Kinnojyukugo_01_079"
    INDEX 01 01:40:06
  TRACK 80 AUDIO
    TITLE "TOEIC LR Kinnojyukugo_01_080"
    INDEX 01 01:40:43
  TRACK 81 AUDIO
    TITLE "TOEIC LR Kinnojyukugo_01_081"
    INDEX 01 01:42:31
  TRACK 82 AUDIO
    TITLE "TOEIC LR Kinnojyukugo_01_082"
    INDEX 01 01:43:30
  TRACK 83 AUDIO
    TITLE "TOEIC LR Kinnojyukugo_01_083"
    INDEX 01 01:45:05
  TRACK 84 AUDIO
    TITLE "TOEIC LR Kinnojyukugo_01_084"
    INDEX 01 01:45:52
  TRACK 85 AUDIO
    TITLE "TOEIC LR Kinnojyukugo_01_085"
    INDEX 01 01:48:15
  TRACK 86 AUDIO
    TITLE "TOEIC LR Kinnojyukugo_01_086"
    INDEX 01 01:49:19
  TRACK 87 AUDIO
    TITLE "TOEIC LR Kinnojyukugo_01_087"
    INDEX 01 01:50:26
  TRACK 88 AUDIO
    TITLE "TOEIC LR Kinnojyukugo_01_088"
    INDEX 01 01:50:65
  TRACK 89 AUDIO
    TITLE "TOEIC LR Kinnojyukugo_01_089"
    INDEX 01 01:53:64
  TRACK 90 AUDIO
    TITLE "TOEIC LR Kinnojyukugo_01_090"
    INDEX 01 01:54:71
  TRACK 91 AUDIO
    TITLE "TOEIC LR Kinnojyukugo_01_091"
    INDEX 01 01:56:15
  TRACK 92 AUDIO
    TITLE "TOEIC LR Kinnojyukugo_01_092"
    INDEX 01 01:56:52
  TRACK 93 AUDIO
    TITLE "TOEIC LR Kinnojyukugo_01_093"
    INDEX 01 01:59:23
  TRACK 94 AUDIO
    TITLE "TOEIC LR Kinnojyukugo_01_094"
    INDEX 01 02:00:23
  TRACK 95 AUDIO
    TITLE "TOEIC LR Kinnojyukugo_01_095"
    INDEX 01 02:01:38
  TRACK 96 AUDIO
    TITLE "TOEIC LR Kinnojyukugo_01_096"
    INDEX 01 02:02:02
  TRACK 97 AUDIO
    TITLE "TOEIC LR Kinnojyukugo_01_097"
    INDEX 01 02:05:39
  TRACK 98 AUDIO
    TITLE "TOEIC LR Kinnojyukugo_01_098"
    INDEX 01 02:06:41
  TRACK 99 AUDIO
    TITLE "TOEIC LR Kinnojyukugo_01_099"
    INDEX 01 02:08:02
  TRACK 100 AUDIO
    TITLE "TOEIC LR Kinnojyukugo_01_100"
    INDEX 01 02:08:40
  TRACK 101 AUDIO
    TITLE "TOEIC LR Kinnojyukugo_01_101"
    INDEX 01 02:11:07
  TRACK 102 AUDIO
    TITLE "TOEIC LR Kinnojyukugo_01_102"
    INDEX 01 02:12:08
  TRACK 103 AUDIO
    TITLE "TOEIC LR Kinnojyukugo_01_103"
    INDEX 01 02:13:39
  TRACK 104 AUDIO
    TITLE "TOEIC LR Kinnojyukugo_01_104"
    INDEX 01 02:14:03
  TRACK 105 AUDIO
    TITLE "TOEIC LR Kinnojyukugo_01_105"
    INDEX 01 02:16:08
  TRACK 106 AUDIO
    TITLE "TOEIC LR Kinnojyukugo_01_106"
    INDEX 01 02:17:07
  TRACK 107 AUDIO
    TITLE "TOEIC LR Kinnojyukugo_01_107"
    INDEX 01 02:18:42
  TRACK 108 AUDIO
    TITLE "TOEIC LR Kinnojyukugo_01_108"
    INDEX 01 02:19:08
  TRACK 109 AUDIO
    TITLE "TOEIC LR Kinnojyukugo_01_109"
    INDEX 01 02:20:70
  TRACK 110 AUDIO
    TITLE "TOEIC LR Kinnojyukugo_01_110"
    INDEX 01 02:21:72
  TRACK 111 AUDIO
    TITLE "TOEIC LR Kinnojyukugo_01_111"
    INDEX 01 02:23:12
  TRACK 112 AUDIO
    TITLE "TOEIC LR Kinnojyukugo_01_112"
    INDEX 01 02:23:51
  TRACK 113 AUDIO
    TITLE "TOEIC LR Kinnojyukugo_01_113"
    INDEX 01 02:25:58
  TRACK 114 AUDIO
    TITLE "TOEIC LR Kinnojyukugo_01_114"
    INDEX 01 02:26:57
  TRACK 115 AUDIO
    TITLE "TOEIC LR Kinnojyukugo_01_115"
    INDEX 01 02:28:07
  TRACK 116 AUDIO
    TITLE "TOEIC LR Kinnojyukugo_01_116"
    INDEX 01 02:28:44
  TRACK 117 AUDIO
    TITLE "TOEIC LR Kinnojyukugo_01_117"
    INDEX 01 02:30:71
  TRACK 118 AUDIO
    TITLE "TOEIC LR Kinnojyukugo_01_118"
    INDEX 01 02:31:70
  TRACK 119 AUDIO
    TITLE "TOEIC LR Kinnojyukugo_01_119"
    INDEX 01 02:33:12
  TRACK 120 AUDIO
    TITLE "TOEIC LR Kinnojyukugo_01_120"
    INDEX 01 02:33:49
  TRACK 121 AUDIO
    TITLE "TOEIC LR Kinnojyukugo_01_121"
    INDEX 01 02:35:46
  TRACK 122 AUDIO
    TITLE "TOEIC LR Kinnojyukugo_01_122"
    INDEX 01 02:36:48
  TRACK 123 AUDIO
    TITLE "TOEIC LR Kinnojyukugo_01_123"
    INDEX 01 02:37:61
  TRACK 124 AUDIO
    TITLE "TOEIC LR Kinnojyukugo_01_124"
    INDEX 01 02:38:23
  TRACK 125 AUDIO
    TITLE "TOEIC LR Kinnojyukugo_01_125"
    INDEX 01 02:40:44
  TRACK 126 AUDIO
    TITLE "TOEIC LR Kinnojyukugo_01_126"
    INDEX 01 02:41:41
  TRACK 127 AUDIO
    TITLE "TOEIC LR Kinnojyukugo_01_127"
    INDEX 01 02:42:70
  TRACK 128 AUDIO
    TITLE "TOEIC LR Kinnojyukugo_01_128"
    INDEX 01 02:43:32
  TRACK 129 AUDIO
    TITLE "TOEIC LR Kinnojyukugo_01_129"
    INDEX 01 02:46:07
  TRACK 130 AUDIO
    TITLE "TOEIC LR Kinnojyukugo_01_130"
    INDEX 01 02:47:04
  TRACK 131 AUDIO
    TITLE "TOEIC LR Kinnojyukugo_01_131"
    INDEX 01 02:48:14
  TRACK 132 AUDIO
    TITLE "TOEIC LR Kinnojyukugo_01_132"
    INDEX 01 02:48:53
  TRACK 133 AUDIO
    TITLE "TOEIC LR Kinnojyukugo_01_133"
    INDEX 01 02:52:02
  TRACK 134 AUDIO
    TITLE "TOEIC LR Kinnojyukugo_01_134"
    INDEX 01 02:53:03
  TRACK 135 AUDIO
    TITLE "TOEIC LR Kinnojyukugo_01_135"
    INDEX 01 02:54:55
  TRACK 136 AUDIO
    TITLE "TOEIC LR Kinnojyukugo_01_136"
    INDEX 01 02:55:18
  TRACK 137 AUDIO
    TITLE "TOEIC LR Kinnojyukugo_01_137"
    INDEX 01 02:58:34
  TRACK 138 AUDIO
    TITLE "TOEIC LR Kinnojyukugo_01_138"
    INDEX 01 02:59:41
  TRACK 139 AUDIO
    TITLE "TOEIC LR Kinnojyukugo_01_139"
    INDEX 01 03:00:64
  TRACK 140 AUDIO
    TITLE "TOEIC LR Kinnojyukugo_01_140"
    INDEX 01 03:01:28
  TRACK 141 AUDIO
    TITLE "TOEIC LR Kinnojyukugo_01_141"
    INDEX 01 03:03:68
  TRACK 142 AUDIO
    TITLE "TOEIC LR Kinnojyukugo_01_142"
    INDEX 01 03:04:68
  TRACK 143 AUDIO
    TITLE "TOEIC LR Kinnojyukugo_01_143"
    INDEX 01 03:06:37
  TRACK 144 AUDIO
    TITLE "TOEIC LR Kinnojyukugo_01_144"
    INDEX 01 03:06:74
  TRACK 145 AUDIO
    TITLE "TOEIC LR Kinnojyukugo_01_145"
    INDEX 01 03:09:37
  TRACK 146 AUDIO
    TITLE "TOEIC LR Kinnojyukugo_01_146"
    INDEX 01 03:10:35
  TRACK 147 AUDIO
    TITLE "TOEIC LR Kinnojyukugo_01_147"
    INDEX 01 03:11:46
  TRACK 148 AUDIO
    TITLE "TOEIC LR Kinnojyukugo_01_148"
    INDEX 01 03:12:06
  TRACK 149 AUDIO
    TITLE "TOEIC LR Kinnojyukugo_01_149"
    INDEX 01 03:14:68
  TRACK 150 AUDIO
    TITLE "TOEIC LR Kinnojyukugo_01_150"
    INDEX 01 03:15:67
  TRACK 151 AUDIO
    TITLE "TOEIC LR Kinnojyukugo_01_151"
    INDEX 01 03:17:45
  TRACK 152 AUDIO
    TITLE "TOEIC LR Kinnojyukugo_01_152"
    INDEX 01 03:18:07
  TRACK 153 AUDIO
    TITLE "TOEIC LR Kinnojyukugo_01_153"
    INDEX 01 03:20:35
  TRACK 154 AUDIO
    TITLE "TOEIC LR Kinnojyukugo_01_154"
    INDEX 01 03:21:46
  TRACK 155 AUDIO
    TITLE "TOEIC LR Kinnojyukugo_01_155"
    INDEX 01 03:22:69
  TRACK 156 AUDIO
    TITLE "TOEIC LR Kinnojyukugo_01_156"
    INDEX 01 03:23:34
  TRACK 157 AUDIO
    TITLE "TOEIC LR Kinnojyukugo_01_157"
    INDEX 01 03:25:29
  TRACK 158 AUDIO
    TITLE "TOEIC LR Kinnojyukugo_01_158"
    INDEX 01 03:26:28
  TRACK 159 AUDIO
    TITLE "TOEIC LR Kinnojyukugo_01_159"
    INDEX 01 03:27:53
  TRACK 160 AUDIO
    TITLE "TOEIC LR Kinnojyukugo_01_160"
    INDEX 01 03:28:15
  TRACK 161 AUDIO
    TITLE "TOEIC LR Kinnojyukugo_01_161"
    INDEX 01 03:30:38
  TRACK 162 AUDIO
    TITLE "TOEIC LR Kinnojyukugo_01_162"
    INDEX 01 03:31:39
  TRACK 163 AUDIO
    TITLE "TOEIC LR Kinnojyukugo_01_163"
    INDEX 01 03:32:62
  TRACK 164 AUDIO
    TITLE "TOEIC LR Kinnojyukugo_01_164"
    INDEX 01 03:33:28
  TRACK 165 AUDIO
    TITLE "TOEIC LR Kinnojyukugo_01_165"
    INDEX 01 03:35:11
  TRACK 166 AUDIO
    TITLE "TOEIC LR Kinnojyukugo_01_166"
    INDEX 01 03:36:13
  TRACK 167 AUDIO
    TITLE "TOEIC LR Kinnojyukugo_01_167"
    INDEX 01 03:37:59
  TRACK 168 AUDIO
    TITLE "TOEIC LR Kinnojyukugo_01_168"
    INDEX 01 03:38:23
  TRACK 169 AUDIO
    TITLE "TOEIC LR Kinnojyukugo_01_169"
    INDEX 01 03:40:46
  TRACK 170 AUDIO
    TITLE "TOEIC LR Kinnojyukugo_01_170"
    INDEX 01 03:41:47
  TRACK 171 AUDIO
    TITLE "TOEIC LR Kinnojyukugo_01_171"
    INDEX 01 03:42:66
  TRACK 172 AUDIO
    TITLE "TOEIC LR Kinnojyukugo_01_172"
    INDEX 01 03:43:32
  TRACK 173 AUDIO
    TITLE "TOEIC LR Kinnojyukugo_01_173"
    INDEX 01 03:48:18
  TRACK 174 AUDIO
    TITLE "TOEIC LR Kinnojyukugo_01_174"
    INDEX 01 03:49:17
  TRACK 175 AUDIO
    TITLE "TOEIC LR Kinnojyukugo_01_175"
    INDEX 01 03:50:46
  TRACK 176 AUDIO
    TITLE "TOEIC LR Kinnojyukugo_01_176"
    INDEX 01 03:51:12
  TRACK 177 AUDIO
    TITLE "TOEIC LR Kinnojyukugo_01_177"
    INDEX 01 03:53:23
  TRACK 178 AUDIO
    TITLE "TOEIC LR Kinnojyukugo_01_178"
    INDEX 01 03:54:22
  TRACK 179 AUDIO
    TITLE "TOEIC LR Kinnojyukugo_01_179"
    INDEX 01 03:55:36
  TRACK 180 AUDIO
    TITLE "TOEIC LR Kinnojyukugo_01_180"
    INDEX 01 03:55:73
  TRACK 181 AUDIO
    TITLE "TOEIC LR Kinnojyukugo_01_181"
    INDEX 01 03:58:07
  TRACK 182 AUDIO
    TITLE "TOEIC LR Kinnojyukugo_01_182"
    INDEX 01 03:59:06
  TRACK 183 AUDIO
    TITLE "TOEIC LR Kinnojyukugo_01_183"
    INDEX 01 04:00:19
  TRACK 184 AUDIO
    TITLE "TOEIC LR Kinnojyukugo_01_184"
    INDEX 01 04:00:58
  TRACK 185 AUDIO
    TITLE "TOEIC LR Kinnojyukugo_01_185"
    INDEX 01 04:02:26
  TRACK 186 AUDIO
    TITLE "TOEIC LR Kinnojyukugo_01_186"
    INDEX 01 04:03:25
  TRACK 187 AUDIO
    TITLE "TOEIC LR Kinnojyukugo_01_187"
    INDEX 01 04:04:50
  TRACK 188 AUDIO
    TITLE "TOEIC LR Kinnojyukugo_01_188"
    INDEX 01 04:05:12
  TRACK 189 AUDIO
    TITLE "TOEIC LR Kinnojyukugo_01_189"
    INDEX 01 04:08:58
  TRACK 190 AUDIO
    TITLE "TOEIC LR Kinnojyukugo_01_190"
    INDEX 01 04:09:61
  TRACK 191 AUDIO
    TITLE "TOEIC LR Kinnojyukugo_01_191"
    INDEX 01 04:11:35
  TRACK 192 AUDIO
    TITLE "TOEIC LR Kinnojyukugo_01_192"
    INDEX 01 04:11:74
  TRACK 193 AUDIO
    TITLE "TOEIC LR Kinnojyukugo_01_193"
    INDEX 01 04:14:21
  TRACK 194 AUDIO
    TITLE "TOEIC LR Kinnojyukugo_01_194"
    INDEX 01 04:15:21
  TRACK 195 AUDIO
    TITLE "TOEIC LR Kinnojyukugo_01_195"
    INDEX 01 04:16:38
  TRACK 196 AUDIO
    TITLE "TOEIC LR Kinnojyukugo_01_196"
    INDEX 01 04:16:71
  TRACK 197 AUDIO
    TITLE "TOEIC LR Kinnojyukugo_01_197"
    INDEX 01 04:19:28
  TRACK 198 AUDIO
    TITLE "TOEIC LR Kinnojyukugo_01_198"
    INDEX 01 04:20:28
  TRACK 199 AUDIO
    TITLE "TOEIC LR Kinnojyukugo_01_199"
    INDEX 01 04:21:51
  TRACK 200 AUDIO
    TITLE "TOEIC LR Kinnojyukugo_01_200"
    INDEX 01 04:22:15
  TRACK 201 AUDIO
    TITLE "TOEIC LR Kinnojyukugo_01_201"
    INDEX 01 04:24:25
  TRACK 202 AUDIO
    TITLE "TOEIC LR Kinnojyukugo_01_202"
    INDEX 01 04:25:25
  TRACK 203 AUDIO
    TITLE "TOEIC LR Kinnojyukugo_01_203"
    INDEX 01 04:26:52
  TRACK 204 AUDIO
    TITLE "TOEIC LR Kinnojyukugo_01_204"
    INDEX 01 04:27:10
  TRACK 205 AUDIO
    TITLE "TOEIC LR Kinnojyukugo_01_205"
    INDEX 01 04:28:53
  TRACK 206 AUDIO
    TITLE "TOEIC LR Kinnojyukugo_01_206"
    INDEX 01 04:29:60
  TRACK 207 AUDIO
    TITLE "TOEIC LR Kinnojyukugo_01_207"
    INDEX 01 04:31:22
  TRACK 208 AUDIO
    TITLE "TOEIC LR Kinnojyukugo_01_208"
    INDEX 01 04:31:57
  TRACK 209 AUDIO
    TITLE "TOEIC LR Kinnojyukugo_01_209"
    INDEX 01 04:34:32
  TRACK 210 AUDIO
    TITLE "TOEIC LR Kinnojyukugo_01_210"
    INDEX 01 04:35:29
  TRACK 211 AUDIO
    TITLE "TOEIC LR Kinnojyukugo_01_211"
    INDEX 01 04:36:58
  TRACK 212 AUDIO
    TITLE "TOEIC LR Kinnojyukugo_01_212"
    INDEX 01 04:37:24
  TRACK 213 AUDIO
    TITLE "TOEIC LR Kinnojyukugo_01_213"
    INDEX 01 04:39:49
  TRACK 214 AUDIO
    TITLE "TOEIC LR Kinnojyukugo_01_214"
    INDEX 01 04:40:50
  TRACK 215 AUDIO
    TITLE "TOEIC LR Kinnojyukugo_01_215"
    INDEX 01 04:41:65
  TRACK 216 AUDIO
    TITLE "TOEIC LR Kinnojyukugo_01_216"
    INDEX 01 04:42:27
  TRACK 217 AUDIO
    TITLE "TOEIC LR Kinnojyukugo_01_217"
    INDEX 01 04:44:52
  TRACK 218 AUDIO
    TITLE "TOEIC LR Kinnojyukugo_01_218"
    INDEX 01 04:45:47
  TRACK 219 AUDIO
    TITLE "TOEIC LR Kinnojyukugo_01_219"
    INDEX 01 04:46:55
  TRACK 220 AUDIO
    TITLE "TOEIC LR Kinnojyukugo_01_220"
    INDEX 01 04:47:15
  TRACK 221 AUDIO
    TITLE "TOEIC LR Kinnojyukugo_01_221"
    INDEX 01 04:49:14
  TRACK 222 AUDIO
    TITLE "TOEIC LR Kinnojyukugo_01_222"
    INDEX 01 04:50:13
  TRACK 223 AUDIO
    TITLE "TOEIC LR Kinnojyukugo_01_223"
    INDEX 01 04:51:60
  TRACK 224 AUDIO
    TITLE "TOEIC LR Kinnojyukugo_01_224"
    INDEX 01 04:52:22
  TRACK 225 AUDIO
    TITLE "TOEIC LR Kinnojyukugo_01_225"
    INDEX 01 04:54:29
  TRACK 226 AUDIO
    TITLE "TOEIC LR Kinnojyukugo_01_226"
    INDEX 01 04:55:30
  TRACK 227 AUDIO
    TITLE "TOEIC LR Kinnojyukugo_01_227"
    INDEX 01 04:56:59
  TRACK 228 AUDIO
    TITLE "TOEIC LR Kinnojyukugo_01_228"
    INDEX 01 04:57:23
  TRACK 229 AUDIO
    TITLE "TOEIC LR Kinnojyukugo_01_229"
    INDEX 01 05:00:17
  TRACK 230 AUDIO
    TITLE "TOEIC LR Kinnojyukugo_01_230"
    INDEX 01 05:01:17
  TRACK 231 AUDIO
    TITLE "TOEIC LR Kinnojyukugo_01_231"
    INDEX 01 05:02:26
  TRACK 232 AUDIO
    TITLE "TOEIC LR Kinnojyukugo_01_232"
    INDEX 01 05:02:61
  TRACK 233 AUDIO
    TITLE "TOEIC LR Kinnojyukugo_01_233"
    INDEX 01 05:04:54
  TRACK 234 AUDIO
    TITLE "TOEIC LR Kinnojyukugo_01_234"
    INDEX 01 05:05:52
  TRACK 235 AUDIO
    TITLE "TOEIC LR Kinnojyukugo_01_235"
    INDEX 01 05:07:02
  TRACK 236 AUDIO
    TITLE "TOEIC LR Kinnojyukugo_01_236"
    INDEX 01 05:07:37
  TRACK 237 AUDIO
    TITLE "TOEIC LR Kinnojyukugo_01_237"
    INDEX 01 05:11:35
  TRACK 238 AUDIO
    TITLE "TOEIC LR Kinnojyukugo_01_238"
    INDEX 01 05:12:44
  TRACK 239 AUDIO
    TITLE "TOEIC LR Kinnojyukugo_01_239"
    INDEX 01 05:13:73
  TRACK 240 AUDIO
    TITLE "TOEIC LR Kinnojyukugo_01_240"
    INDEX 01 05:14:35
  TRACK 241 AUDIO
    TITLE "TOEIC LR Kinnojyukugo_01_241"
    INDEX 01 05:17:41
  TRACK 242 AUDIO
    TITLE "TOEIC LR Kinnojyukugo_01_242"
    INDEX 01 05:18:41
  TRACK 243 AUDIO
    TITLE "TOEIC LR Kinnojyukugo_01_243"
    INDEX 01 05:19:60
  TRACK 244 AUDIO
    TITLE "TOEIC LR Kinnojyukugo_01_244"
    INDEX 01 05:20:22
  TRACK 245 AUDIO
    TITLE "TOEIC LR Kinnojyukugo_01_245"
    INDEX 01 05:22:54
  TRACK 246 AUDIO
    TITLE "TOEIC LR Kinnojyukugo_01_246"
    INDEX 01 05:23:56
  TRACK 247 AUDIO
    TITLE "TOEIC LR Kinnojyukugo_01_247"
    INDEX 01 05:25:15
  TRACK 248 AUDIO
    TITLE "TOEIC LR Kinnojyukugo_01_248"
    INDEX 01 05:25:57
  TRACK 249 AUDIO
    TITLE "TOEIC LR Kinnojyukugo_01_249"
    INDEX 01 05:28:02
  TRACK 250 AUDIO
    TITLE "TOEIC LR Kinnojyukugo_01_250"
    INDEX 01 05:29:03
  TRACK 251 AUDIO
    TITLE "TOEIC LR Kinnojyukugo_01_251"
    INDEX 01 05:30:36
  TRACK 252 AUDIO
    TITLE "TOEIC LR Kinnojyukugo_01_252"
    INDEX 01 05:30:73
  TRACK 253 AUDIO
    TITLE "TOEIC LR Kinnojyukugo_01_253"
    INDEX 01 05:32:57
  TRACK 254 AUDIO
    TITLE "TOEIC LR Kinnojyukugo_01_254"
    INDEX 01 05:33:58
  TRACK 255 AUDIO
    TITLE "TOEIC LR Kinnojyukugo_01_255"
    INDEX 01 05:35:02
  TRACK 256 AUDIO
    TITLE "TOEIC LR Kinnojyukugo_01_256"
    INDEX 01 05:35:39
  TRACK 257 AUDIO
    TITLE "TOEIC LR Kinnojyukugo_01_257"
    INDEX 01 05:37:38
  TRACK 258 AUDIO
    TITLE "TOEIC LR Kinnojyukugo_01_258"
    INDEX 01 05:38:42
  TRACK 259 AUDIO
    TITLE "TOEIC LR Kinnojyukugo_01_259"
    INDEX 01 05:40:09
  TRACK 260 AUDIO
    TITLE "TOEIC LR Kinnojyukugo_01_260"
    INDEX 01 05:40:48
  TRACK 261 AUDIO
    TITLE "TOEIC LR Kinnojyukugo_01_261"
    INDEX 01 05:43:62
  TRACK 262 AUDIO
    TITLE "TOEIC LR Kinnojyukugo_01_262"
    INDEX 01 05:44:62
  TRACK 263 AUDIO
    TITLE "TOEIC LR Kinnojyukugo_01_263"
    INDEX 01 05:45:73
  TRACK 264 AUDIO
    TITLE "TOEIC LR Kinnojyukugo_01_264"
    INDEX 01 05:46:45
  TRACK 265 AUDIO
    TITLE "TOEIC LR Kinnojyukugo_01_265"
    INDEX 01 05:49:08
  TRACK 266 AUDIO
    TITLE "TOEIC LR Kinnojyukugo_01_266"
    INDEX 01 05:50:07
  TRACK 267 AUDIO
    TITLE "TOEIC LR Kinnojyukugo_01_267"
    INDEX 01 05:51:23
  TRACK 268 AUDIO
    TITLE "TOEIC LR Kinnojyukugo_01_268"
    INDEX 01 05:51:60
  TRACK 269 AUDIO
    TITLE "TOEIC LR Kinnojyukugo_01_269"
    INDEX 01 05:53:70
  TRACK 270 AUDIO
    TITLE "TOEIC LR Kinnojyukugo_01_270"
    INDEX 01 05:54:70
  TRACK 271 AUDIO
    TITLE "TOEIC LR Kinnojyukugo_01_271"
    INDEX 01 05:56:26
  TRACK 272 AUDIO
    TITLE "TOEIC LR Kinnojyukugo_01_272"
    INDEX 01 05:56:63
  TRACK 273 AUDIO
    TITLE "TOEIC LR Kinnojyukugo_01_273"
    INDEX 01 05:59:01
  TRACK 274 AUDIO
    TITLE "TOEIC LR Kinnojyukugo_01_274"
    INDEX 01 05:59:75
  TRACK 275 AUDIO
    TITLE "TOEIC LR Kinnojyukugo_01_275"
    INDEX 01 06:01:27
  TRACK 276 AUDIO
    TITLE "TOEIC LR Kinnojyukugo_01_276"
    INDEX 01 06:01:64
  TRACK 277 AUDIO
    TITLE "TOEIC LR Kinnojyukugo_01_277"
    INDEX 01 06:04:55
  TRACK 278 AUDIO
    TITLE "TOEIC LR Kinnojyukugo_01_278"
    INDEX 01 06:05:56
  TRACK 279 AUDIO
    TITLE "TOEIC LR Kinnojyukugo_01_279"
    INDEX 01 06:07:06
  TRACK 280 AUDIO
    TITLE "TOEIC LR Kinnojyukugo_01_280"
    INDEX 01 06:07:45
  TRACK 281 AUDIO
    TITLE "TOEIC LR Kinnojyukugo_01_281"
    INDEX 01 06:09:66
  TRACK 282 AUDIO
    TITLE "TOEIC LR Kinnojyukugo_01_282"
    INDEX 01 06:10:65
  TRACK 283 AUDIO
    TITLE "TOEIC LR Kinnojyukugo_01_283"
    INDEX 01 06:12:01
  TRACK 284 AUDIO
    TITLE "TOEIC LR Kinnojyukugo_01_284"
    INDEX 01 06:12:40
  TRACK 285 AUDIO
    TITLE "TOEIC LR Kinnojyukugo_01_285"
    INDEX 01 06:14:37
  TRACK 286 AUDIO
    TITLE "TOEIC LR Kinnojyukugo_01_286"
    INDEX 01 06:15:37
  TRACK 287 AUDIO
    TITLE "TOEIC LR Kinnojyukugo_01_287"
    INDEX 01 06:16:54
  TRACK 288 AUDIO
    TITLE "TOEIC LR Kinnojyukugo_01_288"
    INDEX 01 06:17:14
  TRACK 289 AUDIO
    TITLE "TOEIC LR Kinnojyukugo_01_289"
    INDEX 01 06:19:25
  TRACK 290 AUDIO
    TITLE "TOEIC LR Kinnojyukugo_01_290"
    INDEX 01 06:20:28
  TRACK 291 AUDIO
    TITLE "TOEIC LR Kinnojyukugo_01_291"
    INDEX 01 06:21:47
  TRACK 292 AUDIO
    TITLE "TOEIC LR Kinnojyukugo_01_292"
    INDEX 01 06:22:09
  TRACK 293 AUDIO
    TITLE "TOEIC LR Kinnojyukugo_01_293"
    INDEX 01 06:24:28
  TRACK 294 AUDIO
    TITLE "TOEIC LR Kinnojyukugo_01_294"
    INDEX 01 06:25:27
  TRACK 295 AUDIO
    TITLE "TOEIC LR Kinnojyukugo_01_295"
    INDEX 01 06:26:43
  TRACK 296 AUDIO
    TITLE "TOEIC LR Kinnojyukugo_01_296"
    INDEX 01 06:27:05
  TRACK 297 AUDIO
    TITLE "TOEIC LR Kinnojyukugo_01_297"
    INDEX 01 06:29:51
  TRACK 298 AUDIO
    TITLE "TOEIC LR Kinnojyukugo_01_298"
    INDEX 01 06:30:50
  TRACK 299 AUDIO
    TITLE "TOEIC LR Kinnojyukugo_01_299"
    INDEX 01 06:31:55
  TRACK 300 AUDIO
    TITLE "TOEIC LR Kinnojyukugo_01_300"
    INDEX 01 06:32:18
  TRACK 301 AUDIO
    TITLE "TOEIC LR Kinnojyukugo_01_301"
    INDEX 01 06:34:28
  TRACK 302 AUDIO
    TITLE "TOEIC LR Kinnojyukugo_01_302"
    INDEX 01 06:35:28
  TRACK 303 AUDIO
    TITLE "TOEIC LR Kinnojyukugo_01_303"
    INDEX 01 06:37:01
  TRACK 304 AUDIO
    TITLE "TOEIC LR Kinnojyukugo_01_304"
    INDEX 01 06:37:36
  TRACK 305 AUDIO
    TITLE "TOEIC LR Kinnojyukugo_01_305"
    INDEX 01 06:40:07
  TRACK 306 AUDIO
    TITLE "TOEIC LR Kinnojyukugo_01_306"
    INDEX 01 06:41:05
  TRACK 307 AUDIO
    TITLE "TOEIC LR Kinnojyukugo_01_307"
    INDEX 01 06:42:28
  TRACK 308 AUDIO
    TITLE "TOEIC LR Kinnojyukugo_01_308"
    INDEX 01 06:42:71
  TRACK 309 AUDIO
    TITLE "TOEIC LR Kinnojyukugo_01_309"
    INDEX 01 06:45:10
  TRACK 310 AUDIO
    TITLE "TOEIC LR Kinnojyukugo_01_310"
    INDEX 01 06:46:12
  TRACK 311 AUDIO
    TITLE "TOEIC LR Kinnojyukugo_01_311"
    INDEX 01 06:47:39
  TRACK 312 AUDIO
    TITLE "TOEIC LR Kinnojyukugo_01_312"
    INDEX 01 06:48:01
  TRACK 313 AUDIO
    TITLE "TOEIC LR Kinnojyukugo_01_313"
    INDEX 01 06:50:63
  TRACK 314 AUDIO
    TITLE "TOEIC LR Kinnojyukugo_01_314"
    INDEX 01 06:51:66
  TRACK 315 AUDIO
    TITLE "TOEIC LR Kinnojyukugo_01_315"
    INDEX 01 06:53:28
  TRACK 316 AUDIO
    TITLE "TOEIC LR Kinnojyukugo_01_316"
    INDEX 01 06:53:65
  TRACK 317 AUDIO
    TITLE "TOEIC LR Kinnojyukugo_01_317"
    INDEX 01 06:56:16
  TRACK 318 AUDIO
    TITLE "TOEIC LR Kinnojyukugo_01_318"
    INDEX 01 06:57:16
  TRACK 319 AUDIO
    TITLE "TOEIC LR Kinnojyukugo_01_319"
    INDEX 01 06:58:48
  TRACK 320 AUDIO
    TITLE "TOEIC LR Kinnojyukugo_01_320"
    INDEX 01 06:59:13
  TRACK 321 AUDIO
    TITLE "TOEIC LR Kinnojyukugo_01_321"
    INDEX 01 07:01:29
  TRACK 322 AUDIO
    TITLE "TOEIC LR Kinnojyukugo_01_322"
    INDEX 01 07:02:30
  TRACK 323 AUDIO
    TITLE "TOEIC LR Kinnojyukugo_01_323"
    INDEX 01 07:03:52
  TRACK 324 AUDIO
    TITLE "TOEIC LR Kinnojyukugo_01_324"
    INDEX 01 07:04:16
  TRACK 325 AUDIO
    TITLE "TOEIC LR Kinnojyukugo_01_325"
    INDEX 01 07:06:26
  TRACK 326 AUDIO
    TITLE "TOEIC LR Kinnojyukugo_01_326"
    INDEX 01 07:07:28
  TRACK 327 AUDIO
    TITLE "TOEIC LR Kinnojyukugo_01_327"
    INDEX 01 07:09:23
  TRACK 328 AUDIO
    TITLE "TOEIC LR Kinnojyukugo_01_328"
    INDEX 01 07:09:60
  TRACK 329 AUDIO
    TITLE "TOEIC LR Kinnojyukugo_01_329"
    INDEX 01 07:12:21
  TRACK 330 AUDIO
    TITLE "TOEIC LR Kinnojyukugo_01_330"
    INDEX 01 07:13:21
  TRACK 331 AUDIO
    TITLE "TOEIC LR Kinnojyukugo_01_331"
    INDEX 01 07:14:36
  TRACK 332 AUDIO
    TITLE "TOEIC LR Kinnojyukugo_01_332"
    INDEX 01 07:14:73
  TRACK 333 AUDIO
    TITLE "TOEIC LR Kinnojyukugo_01_333"
    INDEX 01 07:17:30
  TRACK 334 AUDIO
    TITLE "TOEIC LR Kinnojyukugo_01_334"
    INDEX 01 07:18:31
  TRACK 335 AUDIO
    TITLE "TOEIC LR Kinnojyukugo_01_335"
    INDEX 01 07:19:51
  TRACK 336 AUDIO
    TITLE "TOEIC LR Kinnojyukugo_01_336"
    INDEX 01 07:20:13
  TRACK 337 AUDIO
    TITLE "TOEIC LR Kinnojyukugo_01_337"
    INDEX 01 07:22:06
  TRACK 338 AUDIO
    TITLE "TOEIC LR Kinnojyukugo_01_338"
    INDEX 01 07:23:07
  TRACK 339 AUDIO
    TITLE "TOEIC LR Kinnojyukugo_01_339"
    INDEX 01 07:24:14
  TRACK 340 AUDIO
    TITLE "TOEIC LR Kinnojyukugo_01_340"
    INDEX 01 07:24:52
  TRACK 341 AUDIO
    TITLE "TOEIC LR Kinnojyukugo_01_341"
    INDEX 01 07:27:19
  TRACK 342 AUDIO
    TITLE "TOEIC LR Kinnojyukugo_01_342"
    INDEX 01 07:28:18
  TRACK 343 AUDIO
    TITLE "TOEIC LR Kinnojyukugo_01_343"
    INDEX 01 07:29:63
  TRACK 344 AUDIO
    TITLE "TOEIC LR Kinnojyukugo_01_344"
    INDEX 01 07:30:23
  TRACK 345 AUDIO
    TITLE "TOEIC LR Kinnojyukugo_01_345"
    INDEX 01 07:32:65
  TRACK 346 AUDIO
    TITLE "TOEIC LR Kinnojyukugo_01_346"
    INDEX 01 07:33:66
  TRACK 347 AUDIO
    TITLE "TOEIC LR Kinnojyukugo_01_347"
    INDEX 01 07:35:03
  TRACK 348 AUDIO
    TITLE "TOEIC LR Kinnojyukugo_01_348"
    INDEX 01 07:35:40
  TRACK 349 AUDIO
    TITLE "TOEIC LR Kinnojyukugo_01_349"
    INDEX 01 07:37:41
  TRACK 350 AUDIO
    TITLE "TOEIC LR Kinnojyukugo_01_350"
    INDEX 01 07:38:40
  TRACK 351 AUDIO
    TITLE "TOEIC LR Kinnojyukugo_01_351"
    INDEX 01 07:39:63
  TRACK 352 AUDIO
    TITLE "TOEIC LR Kinnojyukugo_01_352"
    INDEX 01 07:40:27
  TRACK 353 AUDIO
    TITLE "TOEIC LR Kinnojyukugo_01_353"
    INDEX 01 07:42:54
  TRACK 354 AUDIO
    TITLE "TOEIC LR Kinnojyukugo_01_354"
    INDEX 01 07:43:55
  TRACK 355 AUDIO
    TITLE "TOEIC LR Kinnojyukugo_01_355"
    INDEX 01 07:45:17
  TRACK 356 AUDIO
    TITLE "TOEIC LR Kinnojyukugo_01_356"
    INDEX 01 07:45:56
  TRACK 357 AUDIO
    TITLE "TOEIC LR Kinnojyukugo_01_357"
    INDEX 01 07:47:64
  TRACK 358 AUDIO
    TITLE "TOEIC LR Kinnojyukugo_01_358"
    INDEX 01 07:48:66
  TRACK 359 AUDIO
    TITLE "TOEIC LR Kinnojyukugo_01_359"
    INDEX 01 07:50:33
  TRACK 360 AUDIO
    TITLE "TOEIC LR Kinnojyukugo_01_360"
    INDEX 01 07:50:71
  TRACK 361 AUDIO
    TITLE "TOEIC LR Kinnojyukugo_01_361"
    INDEX 01 07:52:60
  TRACK 362 AUDIO
    TITLE "TOEIC LR Kinnojyukugo_01_362"
    INDEX 01 07:53:57
  TRACK 363 AUDIO
    TITLE "TOEIC LR Kinnojyukugo_01_363"
    INDEX 01 07:56:73
  TRACK 364 AUDIO
    TITLE "TOEIC LR Kinnojyukugo_01_364"
    INDEX 01 07:57:35
  TRACK 365 AUDIO
    TITLE "TOEIC LR Kinnojyukugo_01_365"
    INDEX 01 08:00:28
  TRACK 366 AUDIO
    TITLE "TOEIC LR Kinnojyukugo_01_366"
    INDEX 01 08:01:27
  TRACK 367 AUDIO
    TITLE "TOEIC LR Kinnojyukugo_01_367"
    INDEX 01 08:02:41
  TRACK 368 AUDIO
    TITLE "TOEIC LR Kinnojyukugo_01_368"
    INDEX 01 08:03:05
  TRACK 369 AUDIO
    TITLE "TOEIC LR Kinnojyukugo_01_369"
    INDEX 01 08:05:51
  TRACK 370 AUDIO
    TITLE "TOEIC LR Kinnojyukugo_01_370"
    INDEX 01 08:06:52
  TRACK 371 AUDIO
    TITLE "TOEIC LR Kinnojyukugo_01_371"
    INDEX 01 08:07:57
  TRACK 372 AUDIO
    TITLE "TOEIC LR Kinnojyukugo_01_372"
    INDEX 01 08:08:18
  TRACK 373 AUDIO
    TITLE "TOEIC LR Kinnojyukugo_01_373"
    INDEX 01 08:10:20
  TRACK 374 AUDIO
    TITLE "TOEIC LR Kinnojyukugo_01_374"
    INDEX 01 08:11:28
  TRACK 375 AUDIO
    TITLE "TOEIC LR Kinnojyukugo_01_375"
    INDEX 01 08:12:59
  TRACK 376 AUDIO
    TITLE "TOEIC LR Kinnojyukugo_01_376"
    INDEX 01 08:13:19
  TRACK 377 AUDIO
    TITLE "TOEIC LR Kinnojyukugo_01_377"
    INDEX 01 08:15:06
  TRACK 378 AUDIO
    TITLE "TOEIC LR Kinnojyukugo_01_378"
    INDEX 01 08:16:05
  TRACK 379 AUDIO
    TITLE "TOEIC LR Kinnojyukugo_01_379"
    INDEX 01 08:17:42
  TRACK 380 AUDIO
    TITLE "TOEIC LR Kinnojyukugo_01_380"
    INDEX 01 08:18:02
  TRACK 381 AUDIO
    TITLE "TOEIC LR Kinnojyukugo_01_381"
    INDEX 01 08:21:09
  TRACK 382 AUDIO
    TITLE "TOEIC LR Kinnojyukugo_01_382"
    INDEX 01 08:22:08
  TRACK 383 AUDIO
    TITLE "TOEIC LR Kinnojyukugo_01_383"
    INDEX 01 08:23:19
  TRACK 384 AUDIO
    TITLE "TOEIC LR Kinnojyukugo_01_384"
    INDEX 01 08:23:58
  TRACK 385 AUDIO
    TITLE "TOEIC LR Kinnojyukugo_01_385"
    INDEX 01 08:25:69
  TRACK 386 AUDIO
    TITLE "TOEIC LR Kinnojyukugo_01_386"
    INDEX 01 08:26:70
  TRACK 387 AUDIO
    TITLE "TOEIC LR Kinnojyukugo_01_387"
    INDEX 01 08:27:68
  TRACK 388 AUDIO
    TITLE "TOEIC LR Kinnojyukugo_01_388"
    INDEX 01 08:28:40
  TRACK 389 AUDIO
    TITLE "TOEIC LR Kinnojyukugo_01_389"
    INDEX 01 08:30:55
  TRACK 390 AUDIO
    TITLE "TOEIC LR Kinnojyukugo_01_390"
    INDEX 01 08:31:52
  TRACK 391 AUDIO
    TITLE "TOEIC LR Kinnojyukugo_01_391"
    INDEX 01 08:32:61
  TRACK 392 AUDIO
    TITLE "TOEIC LR Kinnojyukugo_01_392"
    INDEX 01 08:33:25
  TRACK 393 AUDIO
    TITLE "TOEIC LR Kinnojyukugo_01_393"
    INDEX 01 08:35:34
  TRACK 394 AUDIO
    TITLE "TOEIC LR Kinnojyukugo_01_394"
    INDEX 01 08:36:45
  TRACK 395 AUDIO
    TITLE "TOEIC LR Kinnojyukugo_01_395"
    INDEX 01 08:37:64
  TRACK 396 AUDIO
    TITLE "TOEIC LR Kinnojyukugo_01_396"
    INDEX 01 08:38:25
  TRACK 397 AUDIO
    TITLE "TOEIC LR Kinnojyukugo_01_397"
    INDEX 01 08:40:47
  TRACK 398 AUDIO
    TITLE "TOEIC LR Kinnojyukugo_01_398"
    INDEX 01 08:41:46
  TRACK 399 AUDIO
    TITLE "TOEIC LR Kinnojyukugo_01_399"
    INDEX 01 08:43:10
  TRACK 400 AUDIO
    TITLE "TOEIC LR Kinnojyukugo_01_400"
    INDEX 01 08:43:47
  TRACK 401 AUDIO
    TITLE "TOEIC LR Kinnojyukugo_01_401"
    INDEX 01 08:47:18
